<?xml version="1.0" encoding="UTF-8"?>
<svg id="Layer_2" data-name="Layer 2" xmlns="http://www.w3.org/2000/svg" viewBox="0 0 873.71 312.05">
  <defs>
    <style>
      .cls-1 {
        fill: #f7f8f8;
        stroke-width: 0px;
      }
    </style>
  </defs>
  <g id="Layer_3" data-name="Layer 3">
    <g>
      <g>
        <path class="cls-1" d="M257.09,250.98v-81.12h66.96v15.4h-49.19v16.4h29.94v15.28h-29.94v34.04h-17.77,0Z"/>
        <path class="cls-1" d="M349.01,188.36c19.75,0,33.17,14.04,33.17,32.05s-13.41,32.43-33.17,32.43-32.92-14.41-32.92-32.43,13.29-32.05,32.92-32.05h0ZM349.01,239.17c10.31,0,16.27-8.7,16.27-18.76s-5.96-18.26-16.27-18.26-15.9,8.32-15.9,18.26,5.84,18.76,15.9,18.76Z"/>
        <path class="cls-1" d="M412.61,252.96c-12.3,0-22.11-9.19-22.11-21.86v-40.75h16.65v40.12c0,4.72,4.1,8.45,10.06,8.45s10.44-3.85,13.92-7.83v-40.75h16.52v43.48c0,4.97.25,10.44,1.49,17.14h-15.4c-.38-2.12-.62-5.47-.74-7.83-4.72,5.34-10.93,9.81-20.38,9.81h0Z"/>
        <path class="cls-1" d="M496.09,188.36c12.3,0,22.11,9.19,22.11,21.86v40.75h-16.65v-40.12c0-4.6-4.1-8.45-10.06-8.45s-10.44,3.98-13.92,7.83v40.75h-16.52v-43.36c0-5.09-.38-10.56-1.74-17.27h15.16c.5,2.36.99,5.09,1.24,7.95,4.6-5.47,10.93-9.94,20.38-9.94h0Z"/>
        <path class="cls-1" d="M575.72,250.98c-.38-2.12-.62-5.09-.74-7.2-3.73,4.22-10.31,8.94-18.76,8.94-16.15,0-29.44-12.79-29.44-32.3s13.41-32.05,29.44-32.05c5.96,0,12.18,2.86,17.14,7.45v-31.8h16.65v69.69c0,4.97,0,10.19,1.37,17.27h-15.66ZM544.66,220.42c0,11.06,6.21,18.39,14.04,18.39,7.2,0,12.54-4.47,14.66-6.71v-22.86c-4.35-4.22-9.69-6.83-14.66-6.83-7.95,0-14.04,6.95-14.04,18.01h0Z"/>
        <path class="cls-1" d="M602.67,194.82c5.72-2.86,16.65-6.46,28.32-6.46,13.92,0,27.95,4.72,27.95,18.39v32.43c0,2.73.25,7.2,1.74,11.8h-16.4c-.62-1.86-1.12-4.72-1.49-6.95-4.47,4.35-9.81,8.45-20.38,8.45-14.66,0-23.98-8.82-23.98-20.62s9.69-20.13,26.59-20.13c6.46,0,12.92,1.49,17.39,4.97v-6.08c0-6.34-5.47-9.19-12.79-9.19-7.7,0-17.39,3.35-21.86,5.72l-5.09-12.3h0ZM642.42,233.58v-5.84c-2.61-2.24-7.83-4.35-14.04-4.35-9.81,0-13.41,3.85-13.41,8.45,0,5.09,4.1,8.45,11.06,8.45,8.7,0,14.53-4.97,16.4-6.71h0Z"/>
        <path class="cls-1" d="M664.77,190.35h10.56v-17.14h16.52v17.14h14.91v12.3h-14.91v31.43c0,3.73,2.36,5.34,6.59,5.34,2.36,0,5.59-.5,7.7-.87l1.25,12.42c-2.36,1.86-9.94,2.36-13.17,2.36-8.94,0-18.88-4.47-18.88-18.01v-32.67h-10.56v-12.3h0Z"/>
        <path class="cls-1" d="M715.71,250.98v-60.63h16.52v60.63h-16.52Z"/>
        <path class="cls-1" d="M774.21,188.36c19.75,0,33.17,14.04,33.17,32.05s-13.41,32.43-33.17,32.43-32.92-14.41-32.92-32.43,13.29-32.05,32.92-32.05h0ZM774.21,239.17c10.31,0,16.27-8.7,16.27-18.76s-5.96-18.26-16.27-18.26-15.9,8.32-15.9,18.26,5.84,18.76,15.9,18.76Z"/>
        <path class="cls-1" d="M851.6,188.36c12.3,0,22.11,9.19,22.11,21.86v40.75h-16.65v-40.12c0-4.6-4.1-8.45-10.06-8.45s-10.44,3.98-13.92,7.83v40.75h-16.52v-43.36c0-5.09-.38-10.56-1.74-17.27h15.16c.5,2.36.99,5.09,1.24,7.95,4.6-5.47,10.93-9.94,20.38-9.94h0Z"/>
      </g>
      <g>
        <path class="cls-1" d="M40.48,257.99v.28l.11-.11c-.06-.06-.08-.11-.11-.17Z"/>
        <path class="cls-1" d="M40.52,286.63l-.06.06v-.11s.03.04.06.06h0Z"/>
        <g>
          <path class="cls-1" d="M199.22,271.49l.06.06h-.11s.04-.03.06-.06h0Z"/>
          <path class="cls-1" d="M190.35,280.89s-9.26-9.23-9.37-9.35c-1.38-1.38-2.76-2.79-4.1-4.22-16.22,12.33-33.56,21.72-54.08,23.99-3.3.37-6.65.57-10.05.57s-6.76-.2-10.05-.57c-26.86-2.99-51.76-18.03-66.84-40.44-8.72-12.91-14.24-28.16-15.5-44.55-.08-1.05-.14-2.06-.17-3.1-.06-1.01-.06-2.06-.06-3.07,0-3.41.17-6.75.54-10.08,2.24-20.72,11.36-39.44,25.06-53.79,8.64-9.02,18.82-15.94,29.82-20.7v-21.27c-10.63,3.96-20.75,9.45-30.94,15.93-7.09,4.5-12.94,10.29-18.34,16.7C9.91,146.54,0,171.74,0,199.23c0,.3,0,.61.03.93,0,1.35.03,2.67.08,3.99.06,2.03.18,4.05.35,6.05,2.09,23.54,11.45,45.06,25.85,62.23,37.58,44.75,107.74,53.01,154.54,17.52,1.61-1.21,3.16-2.44,4.65-3.74,1.83-1.55,3.62-3.16,5.34-4.82l-.5-.5h0ZM40.48,258.27v-.28c.03.06.06.11.11.17l-.11.11Z"/>
          <path class="cls-1" d="M199.78,15.47l-14.35,14.35c-.31-.23-.64-.45-.96-.68-8.44-5.71-18.62-9.05-29.56-9.05-8.06,0-15.7,1.79-22.53,5.06-6.23,2.96-11.77,7.06-16.38,12.08-6.5,7.06-11.08,15.86-12.95,25.64-.62,3.24-.37,5.04-.37,8.47s-.28,6.76,0,10.27v136.88l-20.09,18.55v-77.59l.06-.06s-.03-.03-.06-.03v-28.33l.11-.11s-.06-.08-.11-.14v-47.82h.08c0-.17-.03-.34-.06-.52-.42-3.1-.62-6.28-.62-9.52s.23-6.78.68-10.05c2.13-15.33,9.04-29.14,19.12-39.85,4.62-4.93,9.93-9.2,15.76-12.69,10.92-6.57,23.71-10.33,37.36-10.33,16.48,0,31.7,5.48,43.94,14.77.3.21.61.47.92.69h0Z"/>
          <path class="cls-1" d="M199.26,127.89l-14.29,14.29c-.14-.18-.3-.37-.45-.55-4.08-5.04-8.7-9.62-13.75-13.68-18.44-14.82-41.4-21.32-63.87-19.86-1.89.11-3.75.28-5.62.54v-20.53c1.86-.23,3.74-.4,5.62-.51,1.93-.11,3.91-.17,5.91-.17,27.44,0,52.67,9.87,72.22,26.27,5.16,4.3,9.9,9.06,14.24,14.21h0Z"/>
          <path class="cls-1" d="M40.59,258.16l-.11.11v-.28c.03.06.06.11.11.17Z"/>
        </g>
      </g>
      <g>
        <path class="cls-1" d="M330.23,124.26c-7.09,7.08-17.41,12.91-28.46,12.91-16.78,0-27.57-12.42-27.57-27.7s10.56-27.7,26.95-27.7c8.7,0,19.14,3.98,26.6,10.44l11.18-11.67c-9.69-8.33-24.35-14.16-39.27-14.16-26.21,0-44.09,19.63-44.09,42.99s17.76,43.1,44.72,43.1c17.76,0,31.92-7.95,41.24-16.65l-11.29-11.55h0Z"/>
        <path class="cls-1" d="M380.9,87.37c-7.33,0-13.17,3.98-17.52,8.33v-32.67h-16.52v86.95h16.52v-40.75c2.86-3.74,7.94-7.83,13.78-7.83s10.2,3.85,10.2,8.45v40.12h16.63v-40.75c0-12.67-9.3-21.86-23.1-21.86h0Z"/>
        <path class="cls-1" d="M445.61,87.37c-7.83,0-12.18,4.85-15.9,11.05-.25-3.11-.75-6.47-1.24-9.06h-15.16c1.24,6.71,1.73,12.05,1.73,17.14v43.48h16.65v-39.01c3.35-4.34,6.08-7.7,10.43-7.7,2.24,0,6.34,1,8.21,1.75l4.59-15.16c-2.12-1.62-6.2-2.48-9.32-2.48h0Z"/>
        <path class="cls-1" d="M458.28,89.36v60.62h16.52v-60.62h-16.52Z"/>
        <path class="cls-1" d="M512.07,111.46c-5.21-.24-11.92-.61-11.92-5.71,0-3.85,3.85-5.84,10.06-5.84s15.16,2.36,21.86,5.47l5.84-11.81c-5.09-2.48-17.39-6.47-28.33-6.47-12.29,0-25.84,4.97-25.84,20.37,0,16.41,15.03,17.28,28.2,18.01,5.34.38,12.8,1,12.8,6.72,0,4.22-4.34,7.08-12.05,7.08-9.56,0-19.38-4.59-25.22-8.2l-5.84,11.81c6.34,3.98,16.76,9.19,30.8,9.19,16.28,0,28.82-6.96,28.82-21.37,0-17.52-18.25-18.76-29.19-19.27h0Z"/>
        <path class="cls-1" d="M582.74,137.56c-2.1.37-5.33.86-7.7.86-4.22,0-6.58-1.62-6.58-5.34v-31.44h14.9v-12.29h-14.9v-17.15h-16.52v17.15h-10.57v12.29h10.57v32.67c0,13.54,9.93,18.01,18.88,18.01,3.23,0,10.81-.5,13.17-2.36l-1.25-12.42h0Z"/>
        <path class="cls-1" d="M649.34,118.67c0-22.36-15.66-31.29-30.44-31.29-18.75,0-32.18,14.41-32.18,32.79,0,17.02,11.18,31.68,31.68,31.68,10.94,0,21.86-3.85,28.57-8.94l-7.83-10.57c-4.85,3.61-12.05,6.22-18.62,6.22-10.19,0-16.15-6.22-17.52-14.79h46.09c.25-2.86.25-4.1.25-5.1h0ZM603.37,112.72c1.86-6.83,6.58-12.67,15.4-12.67,6.34,0,13.67,4.09,13.8,12.67h-29.2Z"/>
        <path class="cls-1" d="M689.23,120.57l27.13-33.1h-20.5l-15.94,20.91-15.98-20.91h-16.35l23.67,31.05-23.85,29.57h20.87l12.93-18.27,35.16,45.71h15.98"/>
      </g>
    </g>
  </g>
</svg>